<svg xmlns="http://www.w3.org/2000/svg" xmlns:xlink="http://www.w3.org/1999/xlink" width="2000" zoomAndPan="magnify" viewBox="0 0 1500 1499.999933" height="2000" preserveAspectRatio="xMidYMid meet" version="1.2"><defs><clipPath id="574907cb42"><path d="M 960.957031 960.980469 L 1389.621094 960.980469 L 1389.621094 1389.640625 L 960.957031 1389.640625 Z M 960.957031 960.980469 "/></clipPath><clipPath id="eba306e75e"><path d="M 1175.289062 960.980469 C 1056.917969 960.980469 960.957031 1056.941406 960.957031 1175.3125 C 960.957031 1293.683594 1056.917969 1389.640625 1175.289062 1389.640625 C 1293.660156 1389.640625 1389.621094 1293.683594 1389.621094 1175.3125 C 1389.621094 1056.941406 1293.660156 960.980469 1175.289062 960.980469 Z M 1175.289062 960.980469 "/></clipPath><clipPath id="e645e45524"><path d="M 960.957031 110.359375 L 1389.621094 110.359375 L 1389.621094 539.019531 L 960.957031 539.019531 Z M 960.957031 110.359375 "/></clipPath><clipPath id="546d6eb1f6"><path d="M 1175.289062 110.359375 C 1056.917969 110.359375 960.957031 206.316406 960.957031 324.6875 C 960.957031 443.058594 1056.917969 539.019531 1175.289062 539.019531 C 1293.660156 539.019531 1389.621094 443.058594 1389.621094 324.6875 C 1389.621094 206.316406 1293.660156 110.359375 1175.289062 110.359375 Z M 1175.289062 110.359375 "/></clipPath><clipPath id="822334c843"><path d="M 110.335938 110.359375 L 538.996094 110.359375 L 538.996094 539.019531 L 110.335938 539.019531 Z M 110.335938 110.359375 "/></clipPath><clipPath id="68ff954020"><path d="M 324.667969 110.359375 C 206.292969 110.359375 110.335938 206.316406 110.335938 324.6875 C 110.335938 443.058594 206.292969 539.019531 324.667969 539.019531 C 443.039062 539.019531 538.996094 443.058594 538.996094 324.6875 C 538.996094 206.316406 443.039062 110.359375 324.667969 110.359375 Z M 324.667969 110.359375 "/></clipPath></defs><g id="273991b85d"><rect x="0" width="1500" y="0" height="1499.999933" style="fill:#ffffff;fill-opacity:1;stroke:none;"/><rect x="0" width="1500" y="0" height="1499.999933" style="fill:#ffffff;fill-opacity:1;stroke:none;"/><path style="fill:none;stroke-width:21;stroke-linecap:butt;stroke-linejoin:miter;stroke:#343a40;stroke-opacity:1;stroke-miterlimit:4;" d="M -0.00025911 10.499596 L 124.551776 10.499596 " transform="matrix(0,3.387829,-3.387829,0,1210.852081,539.028222)"/><g clip-rule="nonzero" clip-path="url(#574907cb42)"><g clip-rule="nonzero" clip-path="url(#eba306e75e)"><path style=" stroke:none;fill-rule:nonzero;fill:#ff8c00;fill-opacity:1;" d="M 960.957031 960.980469 L 1389.621094 960.980469 L 1389.621094 1389.640625 L 960.957031 1389.640625 Z M 960.957031 960.980469 "/></g></g><g clip-rule="nonzero" clip-path="url(#e645e45524)"><g clip-rule="nonzero" clip-path="url(#546d6eb1f6)"><path style=" stroke:none;fill-rule:nonzero;fill:#4169e1;fill-opacity:1;" d="M 960.957031 110.359375 L 1389.621094 110.359375 L 1389.621094 539.019531 L 960.957031 539.019531 Z M 960.957031 110.359375 "/></g></g><g clip-rule="nonzero" clip-path="url(#822334c843)"><g clip-rule="nonzero" clip-path="url(#68ff954020)"><path style=" stroke:none;fill-rule:nonzero;fill:#28a745;fill-opacity:1;" d="M 110.335938 110.359375 L 538.996094 110.359375 L 538.996094 539.019531 L 110.335938 539.019531 Z M 110.335938 110.359375 "/></g></g><path style="fill:none;stroke-width:21;stroke-linecap:butt;stroke-linejoin:miter;stroke:#343a40;stroke-opacity:1;stroke-miterlimit:4;" d="M -0.000190439 10.499658 L 124.551845 10.499658 " transform="matrix(3.387829,-0.000000000000006302,0.000000000000006302,3.387829,538.996739,289.116459)"/></g></svg>